<svg xmlns="http://www.w3.org/2000/svg" viewBox="0 0 64 64" width="64" height="64">
  <defs>
    <linearGradient id="bg" x1="0" y1="0" x2="1" y2="1">
      <stop offset="0" stop-color="#23233b"/>
      <stop offset="1" stop-color="#17172a"/>
    </linearGradient>
  </defs>
  <rect x="4" y="4" width="56" height="56" rx="12" fill="url(#bg)" stroke="#ffc400" stroke-width="2"/>
  <g stroke="#ffc400" stroke-width="3" stroke-linecap="round">
    <line x1="28" y1="18" x2="28" y2="36"/>
    <path d="M28 18c5-.8 7.5 3.2 7.5 3.2" fill="none"/>
    <ellipse cx="23.5" cy="38" rx="5" ry="3.8" fill="#ffc400" stroke="none" transform="rotate(-18 23.5 38)"/>
  </g>
  <g stroke="#34d399" stroke-width="2.5" stroke-linecap="round">
    <path d="M36 26h10a3 3 0 0 1 3 3v12a3 3 0 0 1-3 3H36a3 3 0 0 1-3-3V29a3 3 0 0 1 3-3z" fill="none"/>
    <path d="M41 26v-3a5 5 0 0 0-10 0v3" fill="none"/>
  </g>
</svg>
