<svg xmlns="http://www.w3.org/2000/svg" viewBox="0 0 64 64" width="64" height="64">
  <defs>
    <linearGradient id="bg" x1="0" y1="0" x2="1" y2="1">
      <stop offset="0" stop-color="#23233b"/>
      <stop offset="1" stop-color="#17172a"/>
    </linearGradient>
  </defs>
  <rect x="4" y="4" width="56" height="56" rx="12" fill="url(#bg)" stroke="#ffc400" stroke-width="2"/>
  <path d="M14 24h12l4-5h16a2 2 0 0 1 2 2v22a2 2 0 0 1-2 2H14a2 2 0 0 1-2-2V26a2 2 0 0 1 2-2z" fill="none" stroke="#ffc400" stroke-width="2.5"/>
  <g stroke="#4cc9f0" stroke-width="3" stroke-linecap="round">
    <line x1="40" y1="30" x2="40" y2="42"/>
    <path d="M40 30c4.5-.7 7 3 7 3" fill="none"/>
    <ellipse cx="36" cy="43.5" rx="4.5" ry="3.5" fill="#4cc9f0" stroke="none" transform="rotate(-18 36 43.5)"/>
  </g>
</svg>
