<svg xmlns="http://www.w3.org/2000/svg" viewBox="0 0 64 64" width="64" height="64">
  <defs>
    <linearGradient id="bg" x1="0" y1="0" x2="1" y2="1">
      <stop offset="0" stop-color="#23233b"/>
      <stop offset="1" stop-color="#17172a"/>
    </linearGradient>
  </defs>
  <rect x="4" y="4" width="56" height="56" rx="12" fill="url(#bg)" stroke="#f87171" stroke-width="2"/>
  <path d="M14 18h30a4 4 0 0 1 4 4v12a4 4 0 0 1-4 4H28l-8 8v-8h-6a4 4 0 0 1-4-4V22a4 4 0 0 1 4-4z" fill="none" stroke="#f87171" stroke-width="2.5" stroke-linejoin="round"/>
  <g stroke="#ffc400" stroke-width="2.5" stroke-linecap="round">
    <line x1="30" y1="24" x2="30" y2="34"/>
    <path d="M30 24c3.5-.5 5 2.2 5 2.2" fill="none"/>
    <ellipse cx="27.5" cy="35.5" rx="3.5" ry="2.6" fill="#ffc400" stroke="none" transform="rotate(-18 27.5 35.5)"/>
  </g>
</svg>
